INCLUDE "srcs/main/utils/hUGE.inc"

SECTION "OST_title Song Data", ROMX

OST_title::
db 16
dw order_cnt
dw order1, order2, order3, order4
dw duty_instruments, wave_instruments, noise_instruments
dw routines
dw waves

order_cnt: db 12
order1: dw P0,P4,P37,P41,P45,P49
order2: dw P1,P5,P38,P42,P46,P50
order3: dw P2,P2,P39,P43,P2,P2
order4: dw P2,P2,P2,P2,P2,P2

P0:
 dn ___,0,$F10
 dn C_7,2,$000
 dn ___,0,$000
 dn ___,0,$000
 dn ___,0,$000
 dn C_7,2,$000
 dn ___,0,$000
 dn ___,0,$000
 dn ___,0,$000
 dn D_7,2,$000
 dn ___,0,$000
 dn D#7,2,$000
 dn ___,0,$000
 dn D_7,2,$000
 dn ___,0,$000
 dn ___,0,$000
 dn ___,0,$000
 dn ___,0,$000
 dn ___,0,$000
 dn ___,0,$000
 dn ___,0,$000
 dn ___,0,$000
 dn ___,0,$000
 dn ___,0,$000
 dn ___,0,$000
 dn C_7,2,$000
 dn ___,0,$000
 dn G_6,2,$000
 dn ___,0,$000
 dn G#6,2,$000
 dn ___,0,$000
 dn ___,0,$000
 dn ___,0,$000
 dn G_6,2,$000
 dn ___,0,$000
 dn F_6,2,$000
 dn ___,0,$000
 dn G_6,2,$000
 dn ___,0,$000
 dn ___,0,$000
 dn ___,0,$000
 dn ___,0,$000
 dn ___,0,$000
 dn ___,0,$000
 dn ___,0,$000
 dn ___,0,$000
 dn ___,0,$000
 dn ___,0,$000
 dn ___,0,$B02
 dn ___,0,$000
 dn ___,0,$000
 dn ___,0,$000
 dn ___,0,$000
 dn ___,0,$000
 dn ___,0,$000
 dn ___,0,$000
 dn ___,0,$000
 dn ___,0,$000
 dn ___,0,$000
 dn ___,0,$000
 dn ___,0,$000
 dn ___,0,$000
 dn ___,0,$000
 dn ___,0,$000

P1:
 dn ___,0,$000
 dn C_5,10,$000
 dn ___,0,$000
 dn G_5,10,$000
 dn ___,0,$000
 dn G#5,10,$000
 dn ___,0,$000
 dn ___,0,$000
 dn ___,0,$000
 dn ___,0,$000
 dn ___,0,$000
 dn ___,0,$000
 dn ___,0,$000
 dn C_5,10,$000
 dn ___,0,$000
 dn F_5,10,$000
 dn ___,0,$000
 dn G_5,11,$000
 dn ___,0,$000
 dn ___,0,$000
 dn ___,0,$000
 dn ___,0,$000
 dn ___,0,$000
 dn ___,0,$000
 dn ___,0,$000
 dn C_5,10,$000
 dn ___,0,$000
 dn D#5,10,$000
 dn ___,0,$000
 dn F_5,10,$000
 dn ___,0,$000
 dn ___,0,$000
 dn ___,0,$000
 dn ___,0,$000
 dn ___,0,$000
 dn ___,0,$000
 dn ___,0,$000
 dn C_5,10,$000
 dn ___,0,$000
 dn D_5,10,$000
 dn ___,0,$000
 dn D#5,10,$000
 dn ___,0,$000
 dn D_5,10,$000
 dn ___,0,$000
 dn A#4,10,$000
 dn ___,0,$000
 dn ___,0,$000
 dn ___,0,$000
 dn ___,0,$000
 dn ___,0,$000
 dn ___,0,$000
 dn ___,0,$000
 dn ___,0,$000
 dn ___,0,$000
 dn ___,0,$000
 dn ___,0,$000
 dn ___,0,$000
 dn ___,0,$000
 dn ___,0,$000
 dn ___,0,$000
 dn ___,0,$000
 dn ___,0,$000
 dn ___,0,$000

P2:
 dn ___,0,$000
 dn ___,0,$000
 dn ___,0,$000
 dn ___,0,$000
 dn ___,0,$000
 dn ___,0,$000
 dn ___,0,$000
 dn ___,0,$000
 dn ___,0,$000
 dn ___,0,$000
 dn ___,0,$000
 dn ___,0,$000
 dn ___,0,$000
 dn ___,0,$000
 dn ___,0,$000
 dn ___,0,$000
 dn ___,0,$000
 dn ___,0,$000
 dn ___,0,$000
 dn ___,0,$000
 dn ___,0,$000
 dn ___,0,$000
 dn ___,0,$000
 dn ___,0,$000
 dn ___,0,$000
 dn ___,0,$000
 dn ___,0,$000
 dn ___,0,$000
 dn ___,0,$000
 dn ___,0,$000
 dn ___,0,$000
 dn ___,0,$000
 dn ___,0,$000
 dn ___,0,$000
 dn ___,0,$000
 dn ___,0,$000
 dn ___,0,$000
 dn ___,0,$000
 dn ___,0,$000
 dn ___,0,$000
 dn ___,0,$000
 dn ___,0,$000
 dn ___,0,$000
 dn ___,0,$000
 dn ___,0,$000
 dn ___,0,$000
 dn ___,0,$000
 dn ___,0,$000
 dn ___,0,$000
 dn ___,0,$000
 dn ___,0,$000
 dn ___,0,$000
 dn ___,0,$000
 dn ___,0,$000
 dn ___,0,$000
 dn ___,0,$000
 dn ___,0,$000
 dn ___,0,$000
 dn ___,0,$000
 dn ___,0,$000
 dn ___,0,$000
 dn ___,0,$000
 dn ___,0,$000
 dn ___,0,$000

P4:
 dn C_7,2,$000
 dn ___,0,$000
 dn ___,0,$000
 dn ___,0,$000
 dn C_7,2,$000
 dn ___,0,$000
 dn ___,0,$000
 dn ___,0,$000
 dn D_7,2,$000
 dn ___,0,$000
 dn D#7,2,$000
 dn ___,0,$000
 dn F_7,2,$000
 dn ___,0,$000
 dn ___,0,$000
 dn ___,0,$000
 dn ___,0,$000
 dn ___,0,$000
 dn ___,0,$000
 dn ___,0,$000
 dn ___,0,$000
 dn ___,0,$000
 dn ___,0,$000
 dn ___,0,$000
 dn G_7,2,$000
 dn ___,0,$000
 dn D#7,2,$000
 dn ___,0,$000
 dn D_7,2,$000
 dn ___,0,$000
 dn C_7,2,$000
 dn ___,0,$000
 dn A#6,2,$000
 dn ___,0,$000
 dn ___,0,$000
 dn ___,0,$000
 dn C_7,2,$000
 dn ___,0,$000
 dn ___,0,$000
 dn ___,0,$000
 dn ___,0,$000
 dn ___,0,$000
 dn ___,0,$000
 dn ___,0,$000
 dn ___,0,$000
 dn ___,0,$000
 dn ___,0,$000
 dn ___,0,$000
 dn F_5,10,$703
 dn ___,0,$000
 dn ___,0,$000
 dn ___,0,$000
 dn ___,0,$000
 dn ___,0,$000
 dn ___,0,$000
 dn ___,0,$B03
 dn ___,0,$000
 dn ___,0,$000
 dn ___,0,$000
 dn ___,0,$000
 dn ___,0,$000
 dn ___,0,$000
 dn ___,0,$000
 dn ___,0,$000

P5:
 dn C_5,10,$000
 dn ___,0,$000
 dn G_5,10,$000
 dn ___,0,$000
 dn G#5,10,$000
 dn ___,0,$000
 dn ___,0,$000
 dn ___,0,$000
 dn ___,0,$000
 dn ___,0,$000
 dn ___,0,$000
 dn ___,0,$000
 dn A#4,10,$000
 dn ___,0,$000
 dn G_5,10,$000
 dn ___,0,$000
 dn F_5,11,$000
 dn ___,0,$000
 dn ___,0,$000
 dn ___,0,$000
 dn ___,0,$000
 dn ___,0,$000
 dn ___,0,$000
 dn ___,0,$000
 dn G#4,10,$000
 dn ___,0,$000
 dn D#5,10,$000
 dn ___,0,$000
 dn F_5,10,$000
 dn ___,0,$000
 dn ___,0,$000
 dn ___,0,$000
 dn ___,0,$000
 dn ___,0,$000
 dn ___,0,$000
 dn ___,0,$000
 dn F_4,10,$000
 dn ___,0,$000
 dn A#4,10,$000
 dn ___,0,$000
 dn C_5,10,$000
 dn ___,0,$000
 dn F_5,10,$000
 dn ___,0,$000
 dn C_5,10,$000
 dn ___,0,$000
 dn A#4,10,$000
 dn ___,0,$000
 dn F_4,10,$000
 dn ___,0,$000
 dn ___,0,$000
 dn ___,0,$000
 dn ___,0,$000
 dn ___,0,$000
 dn ___,0,$000
 dn ___,0,$000
 dn ___,0,$000
 dn ___,0,$000
 dn ___,0,$000
 dn ___,0,$000
 dn ___,0,$000
 dn ___,0,$000
 dn ___,0,$000
 dn ___,0,$000

P37:
 dn ___,0,$000
 dn ___,0,$000
 dn ___,0,$000
 dn ___,0,$000
 dn C_6,2,$000
 dn ___,0,$000
 dn ___,0,$000
 dn ___,0,$000
 dn C_6,2,$000
 dn ___,0,$000
 dn ___,0,$000
 dn ___,0,$000
 dn D_6,2,$000
 dn ___,0,$000
 dn D#6,2,$000
 dn ___,0,$000
 dn D_6,2,$000
 dn ___,0,$000
 dn ___,0,$000
 dn ___,0,$000
 dn ___,0,$000
 dn ___,0,$000
 dn ___,0,$000
 dn ___,0,$000
 dn ___,0,$000
 dn ___,0,$000
 dn ___,0,$000
 dn ___,0,$000
 dn C_6,2,$000
 dn ___,0,$000
 dn G_5,2,$000
 dn ___,0,$000
 dn G#5,2,$000
 dn ___,0,$000
 dn ___,0,$000
 dn ___,0,$000
 dn G_5,2,$000
 dn ___,0,$000
 dn F_5,2,$000
 dn ___,0,$000
 dn G_5,2,$000
 dn ___,0,$000
 dn ___,0,$000
 dn ___,0,$000
 dn ___,0,$000
 dn ___,0,$000
 dn ___,0,$000
 dn ___,0,$000
 dn ___,0,$000
 dn ___,0,$000
 dn ___,0,$000
 dn ___,0,$B04
 dn ___,0,$000
 dn ___,0,$000
 dn ___,0,$000
 dn ___,0,$000
 dn ___,0,$000
 dn ___,0,$000
 dn ___,0,$000
 dn ___,0,$000
 dn ___,0,$000
 dn ___,0,$000
 dn ___,0,$000
 dn ___,0,$000

P38:
 dn D#5,10,$000
 dn ___,0,$000
 dn ___,0,$000
 dn ___,0,$000
 dn C_5,10,$000
 dn ___,0,$000
 dn G_5,10,$000
 dn ___,0,$000
 dn G#5,10,$000
 dn ___,0,$000
 dn ___,0,$000
 dn ___,0,$000
 dn ___,0,$000
 dn ___,0,$000
 dn ___,0,$000
 dn ___,0,$000
 dn C_5,10,$000
 dn ___,0,$000
 dn F_5,10,$000
 dn ___,0,$000
 dn G_5,11,$000
 dn ___,0,$000
 dn ___,0,$000
 dn ___,0,$000
 dn ___,0,$000
 dn ___,0,$000
 dn ___,0,$000
 dn ___,0,$000
 dn C_5,10,$000
 dn ___,0,$000
 dn D#5,10,$000
 dn ___,0,$000
 dn F_5,10,$000
 dn ___,0,$000
 dn ___,0,$000
 dn ___,0,$000
 dn ___,0,$000
 dn ___,0,$000
 dn ___,0,$000
 dn ___,0,$000
 dn A#4,10,$000
 dn ___,0,$000
 dn D#5,10,$000
 dn ___,0,$000
 dn D_5,10,$000
 dn ___,0,$000
 dn ___,0,$000
 dn ___,0,$000
 dn A#4,10,$000
 dn ___,0,$000
 dn ___,0,$000
 dn ___,0,$000
 dn ___,0,$000
 dn ___,0,$000
 dn ___,0,$000
 dn ___,0,$000
 dn ___,0,$000
 dn ___,0,$000
 dn ___,0,$000
 dn ___,0,$000
 dn ___,0,$000
 dn ___,0,$000
 dn ___,0,$000
 dn ___,0,$000

P39:
 dn ___,0,$000
 dn ___,0,$000
 dn ___,0,$000
 dn ___,0,$000
 dn C_6,13,$412
 dn ___,0,$000
 dn ___,0,$000
 dn ___,0,$000
 dn C_6,13,$412
 dn ___,0,$000
 dn ___,0,$000
 dn ___,0,$000
 dn D_6,13,$412
 dn ___,0,$000
 dn D#6,12,$412
 dn ___,0,$000
 dn D_6,12,$412
 dn ___,0,$000
 dn ___,0,$C07
 dn ___,0,$000
 dn ___,0,$C00
 dn ___,0,$000
 dn ___,0,$000
 dn ___,0,$000
 dn ___,0,$000
 dn ___,0,$000
 dn ___,0,$000
 dn ___,0,$000
 dn C_6,12,$412
 dn ___,0,$000
 dn G_5,12,$412
 dn ___,0,$000
 dn G#5,12,$412
 dn ___,0,$000
 dn ___,0,$000
 dn ___,0,$000
 dn G_5,12,$412
 dn ___,0,$000
 dn F_5,12,$412
 dn ___,0,$000
 dn G_5,12,$412
 dn ___,0,$000
 dn ___,0,$000
 dn ___,0,$000
 dn ___,0,$C07
 dn ___,0,$000
 dn ___,0,$000
 dn ___,0,$000
 dn ___,0,$C00
 dn ___,0,$000
 dn ___,0,$000
 dn ___,0,$000
 dn ___,0,$000
 dn ___,0,$000
 dn ___,0,$000
 dn ___,0,$000
 dn ___,0,$000
 dn ___,0,$000
 dn ___,0,$000
 dn ___,0,$000
 dn ___,0,$000
 dn ___,0,$000
 dn ___,0,$000
 dn ___,0,$000

P41:
 dn C_6,2,$000
 dn ___,0,$000
 dn ___,0,$000
 dn ___,0,$000
 dn C_6,2,$000
 dn ___,0,$000
 dn ___,0,$000
 dn ___,0,$000
 dn D_6,2,$000
 dn ___,0,$000
 dn D#6,2,$000
 dn ___,0,$000
 dn F_6,2,$000
 dn ___,0,$000
 dn ___,0,$000
 dn ___,0,$000
 dn ___,0,$000
 dn ___,0,$000
 dn ___,0,$000
 dn ___,0,$000
 dn ___,0,$000
 dn ___,0,$000
 dn G_6,2,$000
 dn G#6,2,$000
 dn G_6,2,$000
 dn ___,0,$000
 dn ___,0,$000
 dn ___,0,$000
 dn D#6,2,$000
 dn ___,0,$000
 dn ___,0,$000
 dn ___,0,$000
 dn ___,0,$000
 dn ___,0,$000
 dn A#5,2,$000
 dn ___,0,$000
 dn C_6,2,$000
 dn ___,0,$000
 dn ___,0,$000
 dn ___,0,$000
 dn A#5,2,$000
 dn ___,0,$000
 dn ___,0,$000
 dn ___,0,$000
 dn ___,0,$000
 dn ___,0,$000
 dn F_5,2,$000
 dn ___,0,$000
 dn G_5,2,$000
 dn ___,0,$000
 dn ___,0,$000
 dn ___,0,$000
 dn ___,0,$000
 dn ___,0,$000
 dn ___,0,$000
 dn ___,0,$000
 dn ___,0,$000
 dn ___,0,$000
 dn ___,0,$000
 dn ___,0,$B05
 dn ___,0,$000
 dn ___,0,$000
 dn ___,0,$000
 dn ___,0,$000

P42:
 dn G#4,10,$000
 dn ___,0,$000
 dn D#5,10,$000
 dn ___,0,$000
 dn F_5,10,$000
 dn ___,0,$000
 dn ___,0,$000
 dn ___,0,$000
 dn ___,0,$000
 dn ___,0,$000
 dn ___,0,$000
 dn ___,0,$000
 dn F_4,10,$000
 dn ___,0,$000
 dn C_5,10,$000
 dn ___,0,$000
 dn F_5,10,$000
 dn ___,0,$000
 dn G_5,10,$000
 dn ___,0,$000
 dn G#5,10,$000
 dn ___,0,$000
 dn C_6,10,$000
 dn ___,0,$000
 dn D#4,10,$000
 dn ___,0,$000
 dn C_5,10,$000
 dn ___,0,$000
 dn D#5,10,$000
 dn ___,0,$000
 dn G_5,10,$000
 dn ___,0,$000
 dn C_6,10,$000
 dn ___,0,$000
 dn ___,0,$000
 dn ___,0,$000
 dn G#4,10,$000
 dn ___,0,$000
 dn D#5,10,$000
 dn ___,0,$000
 dn A#4,10,$000
 dn ___,0,$000
 dn F_5,10,$000
 dn ___,0,$000
 dn D_5,10,$000
 dn ___,0,$000
 dn ___,0,$000
 dn ___,0,$000
 dn C_5,10,$000
 dn ___,0,$000
 dn G_5,10,$000
 dn ___,0,$000
 dn G#5,10,$000
 dn ___,0,$000
 dn G_5,10,$000
 dn ___,0,$000
 dn G#5,10,$000
 dn ___,0,$000
 dn G_5,10,$000
 dn ___,0,$000
 dn ___,0,$000
 dn ___,0,$000
 dn ___,0,$000
 dn ___,0,$000

P43:
 dn C_6,12,$412
 dn ___,0,$000
 dn ___,0,$000
 dn ___,0,$000
 dn C_6,12,$412
 dn ___,0,$000
 dn ___,0,$000
 dn ___,0,$000
 dn D_6,12,$412
 dn ___,0,$000
 dn D#6,12,$412
 dn ___,0,$000
 dn F_6,12,$412
 dn ___,0,$000
 dn ___,0,$000
 dn ___,0,$000
 dn ___,0,$C07
 dn ___,0,$000
 dn ___,0,$000
 dn ___,0,$000
 dn ___,0,$C00
 dn ___,0,$000
 dn G_6,12,$412
 dn G#6,12,$412
 dn G_6,12,$412
 dn ___,0,$000
 dn ___,0,$000
 dn ___,0,$000
 dn D#6,12,$412
 dn ___,0,$000
 dn ___,0,$000
 dn ___,0,$000
 dn ___,0,$C07
 dn ___,0,$000
 dn A#5,12,$412
 dn ___,0,$000
 dn C_6,12,$412
 dn ___,0,$000
 dn ___,0,$000
 dn ___,0,$000
 dn A#5,12,$412
 dn ___,0,$000
 dn ___,0,$000
 dn ___,0,$000
 dn ___,0,$C07
 dn ___,0,$000
 dn ___,0,$000
 dn ___,0,$000
 dn ___,0,$C00
 dn ___,0,$000
 dn ___,0,$000
 dn ___,0,$000
 dn ___,0,$000
 dn ___,0,$000
 dn ___,0,$000
 dn ___,0,$000
 dn ___,0,$000
 dn ___,0,$000
 dn ___,0,$000
 dn ___,0,$000
 dn ___,0,$000
 dn ___,0,$000
 dn ___,0,$000
 dn ___,0,$000

P45:
 dn ___,0,$000
 dn ___,0,$000
 dn ___,0,$000
 dn ___,0,$000
 dn ___,0,$000
 dn ___,0,$000
 dn ___,0,$000
 dn ___,0,$000
 dn ___,0,$000
 dn ___,0,$000
 dn ___,0,$000
 dn ___,0,$000
 dn ___,0,$000
 dn ___,0,$000
 dn ___,0,$000
 dn ___,0,$000
 dn ___,0,$000
 dn ___,0,$000
 dn ___,0,$000
 dn ___,0,$000
 dn ___,0,$000
 dn ___,0,$000
 dn ___,0,$000
 dn ___,0,$000
 dn D_5,10,$702
 dn ___,0,$000
 dn ___,0,$000
 dn ___,0,$000
 dn ___,0,$000
 dn ___,0,$000
 dn ___,0,$000
 dn ___,0,$E00
 dn D_5,10,$701
 dn ___,0,$B06
 dn ___,0,$000
 dn ___,0,$000
 dn ___,0,$000
 dn ___,0,$000
 dn ___,0,$000
 dn ___,0,$000
 dn ___,0,$000
 dn ___,0,$000
 dn ___,0,$000
 dn ___,0,$000
 dn ___,0,$000
 dn ___,0,$000
 dn ___,0,$000
 dn ___,0,$000
 dn ___,0,$000
 dn ___,0,$000
 dn ___,0,$000
 dn ___,0,$000
 dn ___,0,$000
 dn ___,0,$000
 dn ___,0,$000
 dn ___,0,$000
 dn ___,0,$000
 dn ___,0,$000
 dn ___,0,$000
 dn ___,0,$000
 dn ___,0,$000
 dn ___,0,$000
 dn ___,0,$000
 dn ___,0,$000

P46:
 dn C_5,10,$000
 dn ___,0,$000
 dn F_5,10,$000
 dn ___,0,$000
 dn G_5,10,$000
 dn ___,0,$000
 dn F_5,10,$000
 dn ___,0,$000
 dn G_5,10,$000
 dn ___,0,$000
 dn F_5,10,$000
 dn ___,0,$000
 dn C_5,10,$000
 dn ___,0,$000
 dn D#5,10,$000
 dn ___,0,$000
 dn F_5,10,$000
 dn ___,0,$000
 dn D#5,10,$000
 dn ___,0,$000
 dn F_5,10,$000
 dn ___,0,$000
 dn D#5,10,$000
 dn ___,0,$000
 dn F_4,10,$000
 dn ___,0,$000
 dn ___,0,$000
 dn ___,0,$000
 dn F_4,10,$000
 dn ___,0,$000
 dn ___,0,$000
 dn ___,0,$000
 dn A#4,10,$000
 dn ___,0,$000
 dn ___,0,$000
 dn ___,0,$000
 dn ___,0,$000
 dn ___,0,$000
 dn ___,0,$000
 dn ___,0,$000
 dn ___,0,$000
 dn ___,0,$000
 dn ___,0,$000
 dn ___,0,$000
 dn ___,0,$000
 dn ___,0,$000
 dn ___,0,$000
 dn ___,0,$000
 dn ___,0,$000
 dn ___,0,$000
 dn ___,0,$000
 dn ___,0,$000
 dn ___,0,$000
 dn ___,0,$000
 dn ___,0,$000
 dn ___,0,$000
 dn ___,0,$000
 dn ___,0,$000
 dn ___,0,$000
 dn ___,0,$000
 dn ___,0,$000
 dn ___,0,$000
 dn ___,0,$000
 dn ___,0,$000

P49:
 dn B_5,2,$000
 dn ___,0,$000
 dn B_5,9,$000
 dn ___,0,$000
 dn ___,0,$000
 dn ___,0,$000
 dn ___,0,$000
 dn ___,0,$000
 dn ___,0,$000
 dn ___,0,$000
 dn ___,0,$000
 dn ___,0,$000
 dn ___,0,$000
 dn ___,0,$000
 dn C_6,9,$000
 dn ___,0,$000
 dn ___,0,$000
 dn ___,0,$000
 dn ___,0,$000
 dn ___,0,$000
 dn ___,0,$000
 dn ___,0,$E00
 dn D_6,2,$70F
 dn ___,0,$000
 dn D#6,4,$70B
 dn ___,0,$000
 dn F_6,9,$000
 dn ___,0,$000
 dn ___,0,$000
 dn ___,0,$000
 dn ___,0,$000
 dn ___,0,$000
 dn ___,0,$000
 dn ___,0,$000
 dn ___,0,$000
 dn ___,0,$000
 dn ___,0,$000
 dn ___,0,$000
 dn G_6,9,$000
 dn ___,0,$F11
 dn ___,0,$000
 dn ___,0,$F12
 dn ___,0,$000
 dn ___,0,$F14
 dn ___,0,$000
 dn ___,0,$F20
 dn A#6,9,$000
 dn ___,0,$F01
 dn ___,0,$000
 dn ___,0,$000
 dn ___,0,$000
 dn ___,0,$000
 dn ___,0,$000
 dn ___,0,$000
 dn ___,0,$000
 dn ___,0,$000
 dn ___,0,$000
 dn ___,0,$000
 dn ___,0,$000
 dn ___,0,$000
 dn ___,0,$000
 dn ___,0,$000
 dn ___,0,$000
 dn ___,0,$000

P50:
 dn ___,0,$000
 dn ___,0,$000
 dn C_5,10,$000
 dn ___,0,$000
 dn G_5,10,$000
 dn ___,0,$000
 dn G#5,10,$000
 dn ___,0,$000
 dn G_5,10,$000
 dn ___,0,$000
 dn G#5,10,$000
 dn ___,0,$000
 dn G_5,10,$000
 dn ___,0,$000
 dn C_5,10,$000
 dn ___,0,$000
 dn F_5,10,$000
 dn ___,0,$000
 dn G_5,10,$000
 dn ___,0,$000
 dn F_5,10,$000
 dn ___,0,$000
 dn G_5,10,$000
 dn ___,0,$000
 dn F_5,10,$000
 dn ___,0,$000
 dn C_5,10,$000
 dn ___,0,$000
 dn D#5,10,$000
 dn ___,0,$000
 dn F_5,10,$000
 dn ___,0,$000
 dn D#5,10,$000
 dn ___,0,$000
 dn F_5,10,$000
 dn ___,0,$000
 dn D#5,10,$000
 dn ___,0,$000
 dn A#4,10,$000
 dn ___,0,$000
 dn D_5,10,$000
 dn ___,0,$000
 dn F_5,10,$000
 dn ___,0,$000
 dn A#5,10,$000
 dn ___,0,$000
 dn D_6,10,$000
 dn ___,0,$000
 dn ___,0,$000
 dn ___,0,$000
 dn ___,0,$000
 dn ___,0,$000
 dn ___,0,$000
 dn ___,0,$000
 dn ___,0,$000
 dn ___,0,$000
 dn ___,0,$000
 dn ___,0,$000
 dn ___,0,$000
 dn ___,0,$000
 dn ___,0,$000
 dn ___,0,$000
 dn ___,0,$000
 dn ___,0,$000

duty_instruments:
itSquareinst1:
db 8
db 0
db 244
dw 0
db 128

itSquareinst2:
db 8
db 64
db 243
dw 0
db 128

itSquareinst3:
db 8
db 128
db 240
dw 0
db 128

itSquareinst4:
db 8
db 192
db 240
dw 0
db 128

itSquareinst5:
db 8
db 0
db 241
dw 0
db 128

itSquareinst6:
db 8
db 64
db 241
dw 0
db 128

itSquareinst7:
db 8
db 128
db 241
dw 0
db 128

itSquareinst8:
db 8
db 192
db 241
dw 0
db 128

itSquareinst9:
db 8
db 64
db 244
dw 0
db 128

itSquareinst10:
db 8
db 128
db 134
dw 0
db 128

itSquareinst11:
db 8
db 128
db 135
dw 0
db 128



wave_instruments:
itWaveinst1:
db 0
db 32
db 0
dw 0
db 128

itWaveinst2:
db 0
db 32
db 1
dw 0
db 128

itWaveinst3:
db 0
db 32
db 2
dw 0
db 128

itWaveinst4:
db 0
db 32
db 3
dw 0
db 128

itWaveinst5:
db 0
db 32
db 4
dw 0
db 128

itWaveinst6:
db 0
db 32
db 5
dw 0
db 128

itWaveinst7:
db 0
db 32
db 6
dw 0
db 128

itWaveinst8:
db 0
db 32
db 7
dw 0
db 128

itWaveinst9:
db 0
db 32
db 8
dw 0
db 128

itWaveinst10:
db 0
db 32
db 9
dw 0
db 128

itWaveinst11:
db 0
db 32
db 10
dw 0
db 128

itWaveinst12:
db 0
db 32
db 12
dw 0
db 128

itWaveinst13:
db 0
db 32
db 14
dw 0
db 128



noise_instruments:


routines:
__hUGE_Routine_0:

__end_hUGE_Routine_0:
ret

__hUGE_Routine_1:

__end_hUGE_Routine_1:
ret

__hUGE_Routine_2:

__end_hUGE_Routine_2:
ret

__hUGE_Routine_3:

__end_hUGE_Routine_3:
ret

__hUGE_Routine_4:

__end_hUGE_Routine_4:
ret

__hUGE_Routine_5:

__end_hUGE_Routine_5:
ret

__hUGE_Routine_6:

__end_hUGE_Routine_6:
ret

__hUGE_Routine_7:

__end_hUGE_Routine_7:
ret

__hUGE_Routine_8:

__end_hUGE_Routine_8:
ret

__hUGE_Routine_9:

__end_hUGE_Routine_9:
ret

__hUGE_Routine_10:

__end_hUGE_Routine_10:
ret

__hUGE_Routine_11:

__end_hUGE_Routine_11:
ret

__hUGE_Routine_12:

__end_hUGE_Routine_12:
ret

__hUGE_Routine_13:

__end_hUGE_Routine_13:
ret

__hUGE_Routine_14:

__end_hUGE_Routine_14:
ret

__hUGE_Routine_15:

__end_hUGE_Routine_15:
ret

waves:
wave0: db 1,35,68,85,102,119,136,136,153,153,170,187,204,221,203,170
wave1: db 0,0,0,0,255,255,255,255,255,255,255,255,255,255,255,255
wave2: db 0,0,0,0,0,0,0,0,255,255,255,255,255,255,255,255
wave3: db 0,0,0,0,0,0,0,0,0,0,0,0,255,255,255,255
wave4: db 0,1,18,35,52,69,86,103,120,137,154,171,188,205,222,239
wave5: db 254,220,186,152,118,84,50,16,18,52,86,120,154,188,222,255
wave6: db 122,205,219,117,33,19,104,189,220,151,65,1,71,156,221,184
wave7: db 15,15,15,15,15,15,15,15,15,15,15,15,15,15,15,15
wave8: db 254,252,250,248,246,244,242,240,242,244,246,248,250,252,254,255
wave9: db 254,221,204,187,170,153,136,119,138,189,241,36,87,138,189,238
wave10: db 132,17,97,237,87,71,90,173,206,163,23,121,221,32,3,71
wave11: db 69,97,131,220,215,37,55,7,105,41,39,230,218,216,232,214
wave12: db 120,154,188,222,254,220,186,152,118,84,52,86,120,154,185,135
wave13: db 1,35,69,103,137,171,205,239,255,237,203,169,135,101,67,33
wave14: db 1,35,68,85,102,119,136,136,153,153,170,187,204,221,203,170

